<mxfile host="app.diagrams.net" modified="2023-11-28T05:08:05.235Z" agent="Mozilla/5.0 (X11; Linux x86_64) AppleWebKit/537.36 (KHTML, like Gecko) Chrome/119.0.0.0 Safari/537.36" etag="II7L3CDw0jdetSVkzrfu" version="22.1.4" type="github">
  <diagram name="Page-1" id="e7e014a7-5840-1c2e-5031-d8a46d1fe8dd">
    <mxGraphModel dx="2998" dy="1422" grid="1" gridSize="10" guides="1" tooltips="1" connect="1" arrows="1" fold="1" page="1" pageScale="1" pageWidth="1169" pageHeight="826" background="none" math="0" shadow="0">
      <root>
        <mxCell id="0" />
        <mxCell id="1" parent="0" />
        <mxCell id="2" value="Search and Booking " style="swimlane;whiteSpace=wrap" parent="1" vertex="1">
          <mxGeometry y="360" width="510" height="772" as="geometry">
            <mxRectangle x="270" y="128" width="160" height="30" as="alternateBounds" />
          </mxGeometry>
        </mxCell>
        <mxCell id="8" value="Flight Search " style="" parent="2" vertex="1">
          <mxGeometry x="75.51" y="172" width="110" height="50" as="geometry" />
        </mxCell>
        <mxCell id="10" value="Flight Selection" style="" parent="2" vertex="1">
          <mxGeometry x="75.49" y="260" width="110" height="50" as="geometry" />
        </mxCell>
        <mxCell id="11" value="" style="endArrow=open;strokeColor=#FF0000;endFill=1;rounded=0" parent="2" source="8" target="10" edge="1">
          <mxGeometry relative="1" as="geometry" />
        </mxCell>
        <mxCell id="dw4nmyEJ4Zn5_SoUZIQN-62" style="edgeStyle=orthogonalEdgeStyle;rounded=0;orthogonalLoop=1;jettySize=auto;html=1;exitX=0.5;exitY=1;exitDx=0;exitDy=0;entryX=0.5;entryY=0;entryDx=0;entryDy=0;" edge="1" parent="2" source="dw4nmyEJ4Zn5_SoUZIQN-61" target="dw4nmyEJ4Zn5_SoUZIQN-63">
          <mxGeometry relative="1" as="geometry">
            <mxPoint x="130.83333333333348" y="342" as="targetPoint" />
          </mxGeometry>
        </mxCell>
        <mxCell id="dw4nmyEJ4Zn5_SoUZIQN-61" value="Seat Selection" style="" vertex="1" parent="2">
          <mxGeometry x="75.49" y="352" width="110" height="50" as="geometry" />
        </mxCell>
        <mxCell id="dw4nmyEJ4Zn5_SoUZIQN-64" style="edgeStyle=orthogonalEdgeStyle;rounded=0;orthogonalLoop=1;jettySize=auto;html=1;exitX=0.5;exitY=1;exitDx=0;exitDy=0;entryX=0.5;entryY=0;entryDx=0;entryDy=0;" edge="1" parent="2" source="dw4nmyEJ4Zn5_SoUZIQN-63" target="dw4nmyEJ4Zn5_SoUZIQN-65">
          <mxGeometry relative="1" as="geometry">
            <mxPoint x="130.83333333333348" y="452" as="targetPoint" />
          </mxGeometry>
        </mxCell>
        <mxCell id="dw4nmyEJ4Zn5_SoUZIQN-63" value="Choosing preferences" style="" vertex="1" parent="2">
          <mxGeometry x="63.26" y="432" width="134.5" height="58" as="geometry" />
        </mxCell>
        <mxCell id="dw4nmyEJ4Zn5_SoUZIQN-129" style="edgeStyle=orthogonalEdgeStyle;rounded=0;orthogonalLoop=1;jettySize=auto;html=1;exitX=0.5;exitY=1;exitDx=0;exitDy=0;entryX=0;entryY=0.5;entryDx=0;entryDy=0;" edge="1" parent="2" source="dw4nmyEJ4Zn5_SoUZIQN-65" target="dw4nmyEJ4Zn5_SoUZIQN-67">
          <mxGeometry relative="1" as="geometry" />
        </mxCell>
        <mxCell id="dw4nmyEJ4Zn5_SoUZIQN-65" value="Payment and Confirmation" style="" vertex="1" parent="2">
          <mxGeometry x="52.129999999999995" y="512" width="156.75" height="68" as="geometry" />
        </mxCell>
        <mxCell id="20" value="" style="endArrow=open;strokeColor=#FF0000;endFill=1;rounded=0;entryX=0.5;entryY=0;entryDx=0;entryDy=0;" parent="2" source="10" target="dw4nmyEJ4Zn5_SoUZIQN-61" edge="1">
          <mxGeometry relative="1" as="geometry">
            <mxPoint x="300" y="232" as="targetPoint" />
          </mxGeometry>
        </mxCell>
        <mxCell id="dw4nmyEJ4Zn5_SoUZIQN-72" style="edgeStyle=orthogonalEdgeStyle;rounded=0;orthogonalLoop=1;jettySize=auto;html=1;exitX=0.5;exitY=1;exitDx=0;exitDy=0;entryX=0.5;entryY=0;entryDx=0;entryDy=0;" edge="1" parent="2" source="dw4nmyEJ4Zn5_SoUZIQN-68" target="dw4nmyEJ4Zn5_SoUZIQN-71">
          <mxGeometry relative="1" as="geometry" />
        </mxCell>
        <mxCell id="dw4nmyEJ4Zn5_SoUZIQN-188" value="" style="edgeStyle=orthogonalEdgeStyle;rounded=0;orthogonalLoop=1;jettySize=auto;html=1;" edge="1" parent="2" source="dw4nmyEJ4Zn5_SoUZIQN-68" target="dw4nmyEJ4Zn5_SoUZIQN-71">
          <mxGeometry relative="1" as="geometry" />
        </mxCell>
        <mxCell id="dw4nmyEJ4Zn5_SoUZIQN-68" value="New Flight" style="" vertex="1" parent="2">
          <mxGeometry x="185.5" y="50" width="110" height="50" as="geometry" />
        </mxCell>
        <mxCell id="dw4nmyEJ4Zn5_SoUZIQN-67" value="" style="ellipse;shape=endState;fillColor=#000000;strokeColor=#ff0000" vertex="1" parent="2">
          <mxGeometry x="273.25" y="730" width="30" height="30" as="geometry" />
        </mxCell>
        <mxCell id="dw4nmyEJ4Zn5_SoUZIQN-73" style="edgeStyle=orthogonalEdgeStyle;rounded=0;orthogonalLoop=1;jettySize=auto;html=1;exitX=0;exitY=0.5;exitDx=0;exitDy=0;entryX=0.5;entryY=0;entryDx=0;entryDy=0;" edge="1" parent="2" source="dw4nmyEJ4Zn5_SoUZIQN-71" target="8">
          <mxGeometry relative="1" as="geometry" />
        </mxCell>
        <mxCell id="dw4nmyEJ4Zn5_SoUZIQN-75" value="[Yes]" style="edgeLabel;html=1;align=center;verticalAlign=middle;resizable=0;points=[];" vertex="1" connectable="0" parent="dw4nmyEJ4Zn5_SoUZIQN-73">
          <mxGeometry x="-0.1267" y="1" relative="1" as="geometry">
            <mxPoint y="-9" as="offset" />
          </mxGeometry>
        </mxCell>
        <mxCell id="dw4nmyEJ4Zn5_SoUZIQN-74" style="edgeStyle=orthogonalEdgeStyle;rounded=0;orthogonalLoop=1;jettySize=auto;html=1;exitX=1;exitY=0.5;exitDx=0;exitDy=0;entryX=0.5;entryY=0;entryDx=0;entryDy=0;" edge="1" parent="2" source="dw4nmyEJ4Zn5_SoUZIQN-71" target="dw4nmyEJ4Zn5_SoUZIQN-77">
          <mxGeometry relative="1" as="geometry">
            <mxPoint x="360" y="162.0000000000001" as="targetPoint" />
          </mxGeometry>
        </mxCell>
        <mxCell id="dw4nmyEJ4Zn5_SoUZIQN-76" value="[No]" style="edgeLabel;html=1;align=center;verticalAlign=middle;resizable=0;points=[];" vertex="1" connectable="0" parent="dw4nmyEJ4Zn5_SoUZIQN-74">
          <mxGeometry x="-0.1244" y="3" relative="1" as="geometry">
            <mxPoint y="-5" as="offset" />
          </mxGeometry>
        </mxCell>
        <mxCell id="dw4nmyEJ4Zn5_SoUZIQN-71" value="" style="rhombus;whiteSpace=wrap;html=1;" vertex="1" parent="2">
          <mxGeometry x="233.25" y="122" width="14.5" height="28" as="geometry" />
        </mxCell>
        <mxCell id="dw4nmyEJ4Zn5_SoUZIQN-81" style="edgeStyle=orthogonalEdgeStyle;rounded=0;orthogonalLoop=1;jettySize=auto;html=1;exitX=0.5;exitY=1;exitDx=0;exitDy=0;entryX=0.5;entryY=0;entryDx=0;entryDy=0;" edge="1" parent="2" source="dw4nmyEJ4Zn5_SoUZIQN-77" target="dw4nmyEJ4Zn5_SoUZIQN-89">
          <mxGeometry relative="1" as="geometry">
            <mxPoint x="357" y="240" as="targetPoint" />
          </mxGeometry>
        </mxCell>
        <mxCell id="dw4nmyEJ4Zn5_SoUZIQN-77" value="Flight Selection" style="" vertex="1" parent="2">
          <mxGeometry x="302.25" y="160" width="110" height="50" as="geometry" />
        </mxCell>
        <mxCell id="dw4nmyEJ4Zn5_SoUZIQN-79" value="Change Seat" style="" vertex="1" parent="2">
          <mxGeometry x="233.25" y="420" width="110" height="50" as="geometry" />
        </mxCell>
        <mxCell id="dw4nmyEJ4Zn5_SoUZIQN-82" style="edgeStyle=orthogonalEdgeStyle;rounded=0;orthogonalLoop=1;jettySize=auto;html=1;exitX=0;exitY=0.5;exitDx=0;exitDy=0;" edge="1" parent="2" source="dw4nmyEJ4Zn5_SoUZIQN-80" target="dw4nmyEJ4Zn5_SoUZIQN-79">
          <mxGeometry relative="1" as="geometry" />
        </mxCell>
        <mxCell id="dw4nmyEJ4Zn5_SoUZIQN-85" value="[No]" style="edgeLabel;html=1;align=center;verticalAlign=middle;resizable=0;points=[];" vertex="1" connectable="0" parent="dw4nmyEJ4Zn5_SoUZIQN-82">
          <mxGeometry x="-0.6005" y="-2" relative="1" as="geometry">
            <mxPoint x="-12" y="-12" as="offset" />
          </mxGeometry>
        </mxCell>
        <mxCell id="dw4nmyEJ4Zn5_SoUZIQN-84" style="edgeStyle=orthogonalEdgeStyle;rounded=0;orthogonalLoop=1;jettySize=auto;html=1;exitX=1;exitY=0.5;exitDx=0;exitDy=0;entryX=0.5;entryY=0;entryDx=0;entryDy=0;" edge="1" parent="2" source="dw4nmyEJ4Zn5_SoUZIQN-80" target="dw4nmyEJ4Zn5_SoUZIQN-88">
          <mxGeometry relative="1" as="geometry">
            <mxPoint x="420" y="418" as="targetPoint" />
          </mxGeometry>
        </mxCell>
        <mxCell id="dw4nmyEJ4Zn5_SoUZIQN-86" value="[Yes]" style="edgeLabel;html=1;align=center;verticalAlign=middle;resizable=0;points=[];" vertex="1" connectable="0" parent="dw4nmyEJ4Zn5_SoUZIQN-84">
          <mxGeometry x="-0.2353" y="-2" relative="1" as="geometry">
            <mxPoint x="-14" y="-16" as="offset" />
          </mxGeometry>
        </mxCell>
        <mxCell id="dw4nmyEJ4Zn5_SoUZIQN-80" value="" style="rhombus;whiteSpace=wrap;html=1;" vertex="1" parent="2">
          <mxGeometry x="350" y="340" width="14.5" height="28" as="geometry" />
        </mxCell>
        <mxCell id="dw4nmyEJ4Zn5_SoUZIQN-131" style="edgeStyle=orthogonalEdgeStyle;rounded=0;orthogonalLoop=1;jettySize=auto;html=1;exitX=0.5;exitY=1;exitDx=0;exitDy=0;entryX=1;entryY=0.5;entryDx=0;entryDy=0;" edge="1" parent="2" source="dw4nmyEJ4Zn5_SoUZIQN-88" target="dw4nmyEJ4Zn5_SoUZIQN-67">
          <mxGeometry relative="1" as="geometry" />
        </mxCell>
        <mxCell id="dw4nmyEJ4Zn5_SoUZIQN-88" value="Confirmation" style="" vertex="1" parent="2">
          <mxGeometry x="380" y="420" width="110" height="50" as="geometry" />
        </mxCell>
        <mxCell id="dw4nmyEJ4Zn5_SoUZIQN-91" style="edgeStyle=orthogonalEdgeStyle;rounded=0;orthogonalLoop=1;jettySize=auto;html=1;exitX=0.5;exitY=1;exitDx=0;exitDy=0;entryX=0.5;entryY=0;entryDx=0;entryDy=0;" edge="1" parent="2" source="dw4nmyEJ4Zn5_SoUZIQN-89" target="dw4nmyEJ4Zn5_SoUZIQN-80">
          <mxGeometry relative="1" as="geometry" />
        </mxCell>
        <mxCell id="dw4nmyEJ4Zn5_SoUZIQN-89" value="Cancel Flight" style="" vertex="1" parent="2">
          <mxGeometry x="302.25" y="240" width="110" height="50" as="geometry" />
        </mxCell>
        <mxCell id="dw4nmyEJ4Zn5_SoUZIQN-124" style="edgeStyle=orthogonalEdgeStyle;rounded=0;orthogonalLoop=1;jettySize=auto;html=1;exitX=0.5;exitY=1;exitDx=0;exitDy=0;entryX=0.5;entryY=0;entryDx=0;entryDy=0;" edge="1" parent="2" source="dw4nmyEJ4Zn5_SoUZIQN-79" target="dw4nmyEJ4Zn5_SoUZIQN-125">
          <mxGeometry relative="1" as="geometry">
            <mxPoint x="275" y="590" as="targetPoint" />
            <mxPoint x="275.00000000000045" y="548.0000000000002" as="sourcePoint" />
          </mxGeometry>
        </mxCell>
        <mxCell id="dw4nmyEJ4Zn5_SoUZIQN-126" style="edgeStyle=orthogonalEdgeStyle;rounded=0;orthogonalLoop=1;jettySize=auto;html=1;exitX=0.5;exitY=1;exitDx=0;exitDy=0;entryX=0.5;entryY=0;entryDx=0;entryDy=0;" edge="1" parent="2" source="dw4nmyEJ4Zn5_SoUZIQN-125" target="dw4nmyEJ4Zn5_SoUZIQN-127">
          <mxGeometry relative="1" as="geometry">
            <mxPoint x="274.9756097560976" y="590" as="targetPoint" />
          </mxGeometry>
        </mxCell>
        <mxCell id="dw4nmyEJ4Zn5_SoUZIQN-125" value="Change preferences" style="" vertex="1" parent="2">
          <mxGeometry x="233.25" y="512" width="110" height="50" as="geometry" />
        </mxCell>
        <mxCell id="dw4nmyEJ4Zn5_SoUZIQN-130" style="edgeStyle=orthogonalEdgeStyle;rounded=0;orthogonalLoop=1;jettySize=auto;html=1;exitX=0.5;exitY=1;exitDx=0;exitDy=0;entryX=0.5;entryY=0;entryDx=0;entryDy=0;" edge="1" parent="2" source="dw4nmyEJ4Zn5_SoUZIQN-127" target="dw4nmyEJ4Zn5_SoUZIQN-67">
          <mxGeometry relative="1" as="geometry" />
        </mxCell>
        <mxCell id="dw4nmyEJ4Zn5_SoUZIQN-127" value="Payment and Confirmation" style="" vertex="1" parent="2">
          <mxGeometry x="209.87" y="602" width="156.75" height="68" as="geometry" />
        </mxCell>
        <mxCell id="3" value="Flight and User Management" style="swimlane;whiteSpace=wrap;color=grey" parent="1" vertex="1">
          <mxGeometry x="510" y="360" width="410" height="770" as="geometry" />
        </mxCell>
        <mxCell id="dw4nmyEJ4Zn5_SoUZIQN-152" style="edgeStyle=orthogonalEdgeStyle;rounded=0;orthogonalLoop=1;jettySize=auto;html=1;exitX=0.5;exitY=1;exitDx=0;exitDy=0;entryX=0.5;entryY=0;entryDx=0;entryDy=0;" edge="1" parent="3" source="dw4nmyEJ4Zn5_SoUZIQN-151" target="dw4nmyEJ4Zn5_SoUZIQN-156">
          <mxGeometry relative="1" as="geometry">
            <mxPoint x="102.20689655172418" y="170.00000000000023" as="targetPoint" />
          </mxGeometry>
        </mxCell>
        <mxCell id="dw4nmyEJ4Zn5_SoUZIQN-151" value="View/Manage Flights" style="" vertex="1" parent="3">
          <mxGeometry x="35" y="60" width="135" height="50" as="geometry" />
        </mxCell>
        <mxCell id="dw4nmyEJ4Zn5_SoUZIQN-157" style="edgeStyle=orthogonalEdgeStyle;rounded=0;orthogonalLoop=1;jettySize=auto;html=1;exitX=0.5;exitY=1;exitDx=0;exitDy=0;" edge="1" parent="3" source="dw4nmyEJ4Zn5_SoUZIQN-156" target="dw4nmyEJ4Zn5_SoUZIQN-158">
          <mxGeometry relative="1" as="geometry">
            <mxPoint x="102.20689655172418" y="320.0000000000002" as="targetPoint" />
          </mxGeometry>
        </mxCell>
        <mxCell id="dw4nmyEJ4Zn5_SoUZIQN-156" value="Access and Manage&#xa;Passenger Bookings" style="" vertex="1" parent="3">
          <mxGeometry x="35" y="170" width="135" height="50" as="geometry" />
        </mxCell>
        <mxCell id="dw4nmyEJ4Zn5_SoUZIQN-159" style="edgeStyle=orthogonalEdgeStyle;rounded=0;orthogonalLoop=1;jettySize=auto;html=1;exitX=0.5;exitY=1;exitDx=0;exitDy=0;entryX=0.5;entryY=0;entryDx=0;entryDy=0;" edge="1" parent="3" source="dw4nmyEJ4Zn5_SoUZIQN-158" target="dw4nmyEJ4Zn5_SoUZIQN-160">
          <mxGeometry relative="1" as="geometry">
            <mxPoint x="107.72413793103465" y="700" as="targetPoint" />
          </mxGeometry>
        </mxCell>
        <mxCell id="dw4nmyEJ4Zn5_SoUZIQN-158" value="Confirmation" style="" vertex="1" parent="3">
          <mxGeometry x="35" y="330" width="135" height="50" as="geometry" />
        </mxCell>
        <mxCell id="dw4nmyEJ4Zn5_SoUZIQN-160" value="" style="ellipse;shape=endState;fillColor=#000000;strokeColor=#ff0000" vertex="1" parent="3">
          <mxGeometry x="80" y="460" width="30" height="30" as="geometry" />
        </mxCell>
        <mxCell id="dw4nmyEJ4Zn5_SoUZIQN-186" style="edgeStyle=orthogonalEdgeStyle;rounded=0;orthogonalLoop=1;jettySize=auto;html=1;entryX=0.703;entryY=0.011;entryDx=0;entryDy=0;entryPerimeter=0;" edge="1" parent="3" target="dw4nmyEJ4Zn5_SoUZIQN-151">
          <mxGeometry relative="1" as="geometry">
            <mxPoint x="130.03999999999996" y="52.600000000000136" as="targetPoint" />
            <mxPoint x="130" y="23" as="sourcePoint" />
            <Array as="points" />
          </mxGeometry>
        </mxCell>
        <mxCell id="4" value="System Oversight " style="swimlane;whiteSpace=wrap;startSize=20;" parent="1" vertex="1">
          <mxGeometry x="920" y="360" width="530" height="770" as="geometry" />
        </mxCell>
        <mxCell id="dw4nmyEJ4Zn5_SoUZIQN-174" style="edgeStyle=orthogonalEdgeStyle;rounded=0;orthogonalLoop=1;jettySize=auto;html=1;exitX=0;exitY=0.5;exitDx=0;exitDy=0;entryX=0.5;entryY=0;entryDx=0;entryDy=0;" edge="1" parent="4" source="dw4nmyEJ4Zn5_SoUZIQN-180" target="dw4nmyEJ4Zn5_SoUZIQN-175">
          <mxGeometry relative="1" as="geometry">
            <mxPoint x="87.37931034482745" y="150" as="targetPoint" />
            <mxPoint x="87.5" y="100" as="sourcePoint" />
          </mxGeometry>
        </mxCell>
        <mxCell id="dw4nmyEJ4Zn5_SoUZIQN-181" value="Manage Flights&amp;nbsp;" style="edgeLabel;html=1;align=center;verticalAlign=middle;resizable=0;points=[];" vertex="1" connectable="0" parent="dw4nmyEJ4Zn5_SoUZIQN-174">
          <mxGeometry x="-0.3566" y="1" relative="1" as="geometry">
            <mxPoint x="-4" y="-15" as="offset" />
          </mxGeometry>
        </mxCell>
        <mxCell id="dw4nmyEJ4Zn5_SoUZIQN-176" style="edgeStyle=orthogonalEdgeStyle;rounded=0;orthogonalLoop=1;jettySize=auto;html=1;exitX=0.5;exitY=1;exitDx=0;exitDy=0;entryX=0.5;entryY=0;entryDx=0;entryDy=0;" edge="1" parent="4" source="dw4nmyEJ4Zn5_SoUZIQN-175" target="dw4nmyEJ4Zn5_SoUZIQN-177">
          <mxGeometry relative="1" as="geometry">
            <mxPoint x="87.37931034482745" y="260.0000000000002" as="targetPoint" />
          </mxGeometry>
        </mxCell>
        <mxCell id="dw4nmyEJ4Zn5_SoUZIQN-175" value="Adjust prices " style="" vertex="1" parent="4">
          <mxGeometry x="20" y="160" width="135" height="50" as="geometry" />
        </mxCell>
        <mxCell id="dw4nmyEJ4Zn5_SoUZIQN-178" style="edgeStyle=orthogonalEdgeStyle;rounded=0;orthogonalLoop=1;jettySize=auto;html=1;exitX=0.5;exitY=1;exitDx=0;exitDy=0;entryX=0.5;entryY=0;entryDx=0;entryDy=0;" edge="1" parent="4" source="dw4nmyEJ4Zn5_SoUZIQN-177" target="dw4nmyEJ4Zn5_SoUZIQN-179">
          <mxGeometry relative="1" as="geometry">
            <mxPoint x="87.37931034482745" y="360.0000000000002" as="targetPoint" />
          </mxGeometry>
        </mxCell>
        <mxCell id="dw4nmyEJ4Zn5_SoUZIQN-177" value="Manage Accounts" style="" vertex="1" parent="4">
          <mxGeometry x="20" y="260" width="135" height="50" as="geometry" />
        </mxCell>
        <mxCell id="dw4nmyEJ4Zn5_SoUZIQN-202" style="edgeStyle=orthogonalEdgeStyle;rounded=0;orthogonalLoop=1;jettySize=auto;html=1;exitX=0.5;exitY=1;exitDx=0;exitDy=0;entryX=0;entryY=0.5;entryDx=0;entryDy=0;" edge="1" parent="4" source="dw4nmyEJ4Zn5_SoUZIQN-179" target="dw4nmyEJ4Zn5_SoUZIQN-200">
          <mxGeometry relative="1" as="geometry" />
        </mxCell>
        <mxCell id="dw4nmyEJ4Zn5_SoUZIQN-179" value="Adjust Flights" style="" vertex="1" parent="4">
          <mxGeometry x="20" y="360" width="135" height="50" as="geometry" />
        </mxCell>
        <mxCell id="dw4nmyEJ4Zn5_SoUZIQN-191" style="edgeStyle=orthogonalEdgeStyle;rounded=0;orthogonalLoop=1;jettySize=auto;html=1;exitX=0.5;exitY=1;exitDx=0;exitDy=0;entryX=0.505;entryY=-0.056;entryDx=0;entryDy=0;entryPerimeter=0;" edge="1" parent="4" source="dw4nmyEJ4Zn5_SoUZIQN-180" target="dw4nmyEJ4Zn5_SoUZIQN-193">
          <mxGeometry relative="1" as="geometry">
            <mxPoint x="250" y="130" as="targetPoint" />
          </mxGeometry>
        </mxCell>
        <mxCell id="dw4nmyEJ4Zn5_SoUZIQN-192" value="System Maintenance" style="edgeLabel;html=1;align=center;verticalAlign=middle;resizable=0;points=[];" vertex="1" connectable="0" parent="dw4nmyEJ4Zn5_SoUZIQN-191">
          <mxGeometry x="0.1626" y="1" relative="1" as="geometry">
            <mxPoint x="32" y="-13" as="offset" />
          </mxGeometry>
        </mxCell>
        <mxCell id="dw4nmyEJ4Zn5_SoUZIQN-196" style="edgeStyle=orthogonalEdgeStyle;rounded=0;orthogonalLoop=1;jettySize=auto;html=1;exitX=1;exitY=0.5;exitDx=0;exitDy=0;entryX=0.5;entryY=0;entryDx=0;entryDy=0;" edge="1" parent="4" source="dw4nmyEJ4Zn5_SoUZIQN-180" target="dw4nmyEJ4Zn5_SoUZIQN-197">
          <mxGeometry relative="1" as="geometry">
            <mxPoint x="430" y="150" as="targetPoint" />
          </mxGeometry>
        </mxCell>
        <mxCell id="dw4nmyEJ4Zn5_SoUZIQN-198" value="Reports" style="edgeLabel;html=1;align=center;verticalAlign=middle;resizable=0;points=[];" vertex="1" connectable="0" parent="dw4nmyEJ4Zn5_SoUZIQN-196">
          <mxGeometry x="0.2335" y="-3" relative="1" as="geometry">
            <mxPoint x="-81" y="-17" as="offset" />
          </mxGeometry>
        </mxCell>
        <mxCell id="dw4nmyEJ4Zn5_SoUZIQN-180" value="" style="rhombus;whiteSpace=wrap;html=1;" vertex="1" parent="4">
          <mxGeometry x="172.75" y="50" width="14.5" height="28" as="geometry" />
        </mxCell>
        <mxCell id="dw4nmyEJ4Zn5_SoUZIQN-183" value="" style="endArrow=classic;html=1;rounded=0;entryX=0.5;entryY=0;entryDx=0;entryDy=0;" edge="1" parent="4" target="dw4nmyEJ4Zn5_SoUZIQN-180">
          <mxGeometry width="50" height="50" relative="1" as="geometry">
            <mxPoint x="180" y="20" as="sourcePoint" />
            <mxPoint x="200" y="40" as="targetPoint" />
          </mxGeometry>
        </mxCell>
        <mxCell id="dw4nmyEJ4Zn5_SoUZIQN-194" style="edgeStyle=orthogonalEdgeStyle;rounded=0;orthogonalLoop=1;jettySize=auto;html=1;exitX=0.5;exitY=1;exitDx=0;exitDy=0;entryX=0.5;entryY=0;entryDx=0;entryDy=0;" edge="1" parent="4" source="dw4nmyEJ4Zn5_SoUZIQN-193" target="dw4nmyEJ4Zn5_SoUZIQN-195">
          <mxGeometry relative="1" as="geometry">
            <mxPoint x="265.20000000000005" y="280" as="targetPoint" />
          </mxGeometry>
        </mxCell>
        <mxCell id="dw4nmyEJ4Zn5_SoUZIQN-193" value="Monitor system" style="" vertex="1" parent="4">
          <mxGeometry x="197.5" y="160" width="135" height="50" as="geometry" />
        </mxCell>
        <mxCell id="dw4nmyEJ4Zn5_SoUZIQN-201" style="edgeStyle=orthogonalEdgeStyle;rounded=0;orthogonalLoop=1;jettySize=auto;html=1;exitX=0.5;exitY=1;exitDx=0;exitDy=0;entryX=0.5;entryY=0;entryDx=0;entryDy=0;" edge="1" parent="4" source="dw4nmyEJ4Zn5_SoUZIQN-195" target="dw4nmyEJ4Zn5_SoUZIQN-200">
          <mxGeometry relative="1" as="geometry" />
        </mxCell>
        <mxCell id="dw4nmyEJ4Zn5_SoUZIQN-195" value="Update System" style="" vertex="1" parent="4">
          <mxGeometry x="209" y="280" width="135" height="50" as="geometry" />
        </mxCell>
        <mxCell id="dw4nmyEJ4Zn5_SoUZIQN-203" style="edgeStyle=orthogonalEdgeStyle;rounded=0;orthogonalLoop=1;jettySize=auto;html=1;exitX=0.5;exitY=1;exitDx=0;exitDy=0;entryX=1;entryY=0.5;entryDx=0;entryDy=0;" edge="1" parent="4" source="dw4nmyEJ4Zn5_SoUZIQN-197" target="dw4nmyEJ4Zn5_SoUZIQN-200">
          <mxGeometry relative="1" as="geometry" />
        </mxCell>
        <mxCell id="dw4nmyEJ4Zn5_SoUZIQN-197" value="Generate reports" style="" vertex="1" parent="4">
          <mxGeometry x="370" y="160" width="135" height="50" as="geometry" />
        </mxCell>
        <mxCell id="dw4nmyEJ4Zn5_SoUZIQN-200" value="" style="ellipse;shape=endState;fillColor=#000000;strokeColor=#ff0000" vertex="1" parent="4">
          <mxGeometry x="240" y="480" width="30" height="30" as="geometry" />
        </mxCell>
        <mxCell id="5" value="" style="ellipse;shape=startState;fillColor=#000000;strokeColor=#ff0000;" parent="1" vertex="1">
          <mxGeometry x="500" width="30" height="30" as="geometry" />
        </mxCell>
        <mxCell id="6" value="" style="edgeStyle=elbowEdgeStyle;elbow=horizontal;verticalAlign=bottom;endArrow=open;endSize=8;strokeColor=#FF0000;endFill=1;rounded=0" parent="1" source="5" target="7" edge="1">
          <mxGeometry x="264.5" y="168" as="geometry">
            <mxPoint x="-0.5" y="566" as="targetPoint" />
          </mxGeometry>
        </mxCell>
        <mxCell id="dw4nmyEJ4Zn5_SoUZIQN-134" style="edgeStyle=orthogonalEdgeStyle;rounded=0;orthogonalLoop=1;jettySize=auto;html=1;exitX=0.5;exitY=1;exitDx=0;exitDy=0;entryX=0.5;entryY=0;entryDx=0;entryDy=0;" edge="1" parent="1" source="7" target="dw4nmyEJ4Zn5_SoUZIQN-135">
          <mxGeometry relative="1" as="geometry">
            <mxPoint x="514.7894736842109" y="158" as="targetPoint" />
          </mxGeometry>
        </mxCell>
        <mxCell id="7" value="Login" style="" parent="1" vertex="1">
          <mxGeometry x="460" y="60" width="110" height="50" as="geometry" />
        </mxCell>
        <mxCell id="dw4nmyEJ4Zn5_SoUZIQN-49" style="edgeStyle=orthogonalEdgeStyle;rounded=0;orthogonalLoop=1;jettySize=auto;html=1;exitX=1;exitY=0.5;exitDx=0;exitDy=0;entryX=0;entryY=0.25;entryDx=0;entryDy=0;" edge="1" parent="1" source="dw4nmyEJ4Zn5_SoUZIQN-43" target="dw4nmyEJ4Zn5_SoUZIQN-54">
          <mxGeometry relative="1" as="geometry">
            <mxPoint x="320" y="320" as="targetPoint" />
          </mxGeometry>
        </mxCell>
        <mxCell id="dw4nmyEJ4Zn5_SoUZIQN-53" value="[Yes]" style="edgeLabel;html=1;align=center;verticalAlign=middle;resizable=0;points=[];" vertex="1" connectable="0" parent="dw4nmyEJ4Zn5_SoUZIQN-49">
          <mxGeometry x="-0.5954" y="-2" relative="1" as="geometry">
            <mxPoint x="25" y="11" as="offset" />
          </mxGeometry>
        </mxCell>
        <mxCell id="dw4nmyEJ4Zn5_SoUZIQN-50" style="edgeStyle=orthogonalEdgeStyle;rounded=0;orthogonalLoop=1;jettySize=auto;html=1;exitX=0;exitY=0.5;exitDx=0;exitDy=0;entryX=0.5;entryY=0;entryDx=0;entryDy=0;" edge="1" parent="1" source="dw4nmyEJ4Zn5_SoUZIQN-43" target="dw4nmyEJ4Zn5_SoUZIQN-51">
          <mxGeometry relative="1" as="geometry">
            <mxPoint x="-120" y="714" as="targetPoint" />
          </mxGeometry>
        </mxCell>
        <mxCell id="dw4nmyEJ4Zn5_SoUZIQN-52" value="[No]" style="edgeLabel;html=1;align=center;verticalAlign=middle;resizable=0;points=[];" vertex="1" connectable="0" parent="dw4nmyEJ4Zn5_SoUZIQN-50">
          <mxGeometry x="-0.1489" y="1" relative="1" as="geometry">
            <mxPoint y="-10" as="offset" />
          </mxGeometry>
        </mxCell>
        <mxCell id="dw4nmyEJ4Zn5_SoUZIQN-43" value="" style="rhombus;whiteSpace=wrap;html=1;" vertex="1" parent="1">
          <mxGeometry x="350" y="178" width="14.5" height="28" as="geometry" />
        </mxCell>
        <mxCell id="dw4nmyEJ4Zn5_SoUZIQN-55" style="edgeStyle=orthogonalEdgeStyle;rounded=0;orthogonalLoop=1;jettySize=auto;html=1;exitX=0.5;exitY=1;exitDx=0;exitDy=0;entryX=0;entryY=0.75;entryDx=0;entryDy=0;" edge="1" parent="1" source="dw4nmyEJ4Zn5_SoUZIQN-51" target="dw4nmyEJ4Zn5_SoUZIQN-54">
          <mxGeometry relative="1" as="geometry" />
        </mxCell>
        <mxCell id="dw4nmyEJ4Zn5_SoUZIQN-51" value="Registeration" style="rounded=0;whiteSpace=wrap;html=1;" vertex="1" parent="1">
          <mxGeometry x="240" y="220" width="80" height="36" as="geometry" />
        </mxCell>
        <mxCell id="dw4nmyEJ4Zn5_SoUZIQN-54" value="" style="whiteSpace=wrap;strokeColor=#FF0000;fillColor=#FF0000;rotation=90;" vertex="1" parent="1">
          <mxGeometry x="370" y="300" width="5" height="45" as="geometry" />
        </mxCell>
        <mxCell id="dw4nmyEJ4Zn5_SoUZIQN-139" style="edgeStyle=orthogonalEdgeStyle;rounded=0;orthogonalLoop=1;jettySize=auto;html=1;exitX=0;exitY=0.5;exitDx=0;exitDy=0;entryX=0.5;entryY=0;entryDx=0;entryDy=0;" edge="1" parent="1" source="dw4nmyEJ4Zn5_SoUZIQN-135" target="dw4nmyEJ4Zn5_SoUZIQN-43">
          <mxGeometry relative="1" as="geometry">
            <mxPoint x="320" y="172.22222222222217" as="targetPoint" />
          </mxGeometry>
        </mxCell>
        <mxCell id="dw4nmyEJ4Zn5_SoUZIQN-140" value="[User or Tourist agent]" style="edgeLabel;html=1;align=center;verticalAlign=middle;resizable=0;points=[];" vertex="1" connectable="0" parent="dw4nmyEJ4Zn5_SoUZIQN-139">
          <mxGeometry x="-0.1106" y="-1" relative="1" as="geometry">
            <mxPoint x="-14" y="-13" as="offset" />
          </mxGeometry>
        </mxCell>
        <mxCell id="dw4nmyEJ4Zn5_SoUZIQN-135" value="" style="rhombus;whiteSpace=wrap;html=1;" vertex="1" parent="1">
          <mxGeometry x="510" y="140" width="14.5" height="28" as="geometry" />
        </mxCell>
        <mxCell id="dw4nmyEJ4Zn5_SoUZIQN-170" style="edgeStyle=orthogonalEdgeStyle;rounded=0;orthogonalLoop=1;jettySize=auto;html=1;exitX=0;exitY=0.5;exitDx=0;exitDy=0;entryX=1;entryY=0.5;entryDx=0;entryDy=0;" edge="1" parent="1" source="dw4nmyEJ4Zn5_SoUZIQN-151" target="dw4nmyEJ4Zn5_SoUZIQN-77">
          <mxGeometry relative="1" as="geometry" />
        </mxCell>
        <mxCell id="dw4nmyEJ4Zn5_SoUZIQN-171" style="edgeStyle=orthogonalEdgeStyle;rounded=0;orthogonalLoop=1;jettySize=auto;html=1;exitX=0;exitY=0.25;exitDx=0;exitDy=0;entryX=1;entryY=0.5;entryDx=0;entryDy=0;" edge="1" parent="1" source="dw4nmyEJ4Zn5_SoUZIQN-151" target="8">
          <mxGeometry relative="1" as="geometry">
            <Array as="points">
              <mxPoint x="490" y="433" />
              <mxPoint x="490" y="580" />
              <mxPoint x="220" y="580" />
              <mxPoint x="220" y="557" />
            </Array>
          </mxGeometry>
        </mxCell>
        <mxCell id="dw4nmyEJ4Zn5_SoUZIQN-182" value="" style="endArrow=none;html=1;rounded=0;entryX=1;entryY=0.5;entryDx=0;entryDy=0;" edge="1" parent="1" target="dw4nmyEJ4Zn5_SoUZIQN-135">
          <mxGeometry width="50" height="50" relative="1" as="geometry">
            <mxPoint x="1100" y="360" as="sourcePoint" />
            <mxPoint x="1100" y="180" as="targetPoint" />
            <Array as="points">
              <mxPoint x="1100" y="150" />
            </Array>
          </mxGeometry>
        </mxCell>
        <mxCell id="dw4nmyEJ4Zn5_SoUZIQN-184" value="" style="endArrow=none;html=1;rounded=0;entryX=0.5;entryY=1;entryDx=0;entryDy=0;" edge="1" parent="1" target="dw4nmyEJ4Zn5_SoUZIQN-135">
          <mxGeometry width="50" height="50" relative="1" as="geometry">
            <mxPoint x="640" y="360" as="sourcePoint" />
            <mxPoint x="640" y="200" as="targetPoint" />
            <Array as="points">
              <mxPoint x="640" y="280" />
              <mxPoint x="520" y="280" />
            </Array>
          </mxGeometry>
        </mxCell>
        <mxCell id="dw4nmyEJ4Zn5_SoUZIQN-187" value="" style="endArrow=none;html=1;rounded=0;entryX=1;entryY=0.5;entryDx=0;entryDy=0;exitX=0.729;exitY=-0.002;exitDx=0;exitDy=0;exitPerimeter=0;" edge="1" parent="1" source="2" target="dw4nmyEJ4Zn5_SoUZIQN-54">
          <mxGeometry width="50" height="50" relative="1" as="geometry">
            <mxPoint x="410" y="410" as="sourcePoint" />
            <mxPoint x="460" y="360" as="targetPoint" />
          </mxGeometry>
        </mxCell>
        <mxCell id="dw4nmyEJ4Zn5_SoUZIQN-190" value="" style="endArrow=classic;html=1;rounded=0;entryX=1.004;entryY=0.546;entryDx=0;entryDy=0;entryPerimeter=0;" edge="1" parent="1" target="dw4nmyEJ4Zn5_SoUZIQN-68">
          <mxGeometry width="50" height="50" relative="1" as="geometry">
            <mxPoint x="370" y="383" as="sourcePoint" />
            <mxPoint x="293.85" y="430.5" as="targetPoint" />
            <Array as="points">
              <mxPoint x="370" y="437" />
            </Array>
          </mxGeometry>
        </mxCell>
        <mxCell id="dw4nmyEJ4Zn5_SoUZIQN-199" style="edgeStyle=orthogonalEdgeStyle;rounded=0;orthogonalLoop=1;jettySize=auto;html=1;exitX=0;exitY=0.5;exitDx=0;exitDy=0;entryX=1;entryY=0.5;entryDx=0;entryDy=0;" edge="1" parent="1" source="dw4nmyEJ4Zn5_SoUZIQN-179" target="dw4nmyEJ4Zn5_SoUZIQN-151">
          <mxGeometry relative="1" as="geometry" />
        </mxCell>
        <mxCell id="dw4nmyEJ4Zn5_SoUZIQN-204" style="edgeStyle=orthogonalEdgeStyle;rounded=0;orthogonalLoop=1;jettySize=auto;html=1;exitX=0;exitY=0.75;exitDx=0;exitDy=0;entryX=1;entryY=0.75;entryDx=0;entryDy=0;" edge="1" parent="1" source="dw4nmyEJ4Zn5_SoUZIQN-179" target="dw4nmyEJ4Zn5_SoUZIQN-77">
          <mxGeometry relative="1" as="geometry">
            <Array as="points">
              <mxPoint x="530" y="757" />
              <mxPoint x="530" y="557" />
            </Array>
          </mxGeometry>
        </mxCell>
        <mxCell id="dw4nmyEJ4Zn5_SoUZIQN-206" style="edgeStyle=orthogonalEdgeStyle;rounded=0;orthogonalLoop=1;jettySize=auto;html=1;exitX=0;exitY=0.25;exitDx=0;exitDy=0;entryX=0.75;entryY=0;entryDx=0;entryDy=0;" edge="1" parent="1" source="dw4nmyEJ4Zn5_SoUZIQN-179" target="8">
          <mxGeometry relative="1" as="geometry">
            <Array as="points">
              <mxPoint x="770" y="733" />
              <mxPoint x="770" y="400" />
              <mxPoint x="158" y="400" />
            </Array>
          </mxGeometry>
        </mxCell>
      </root>
    </mxGraphModel>
  </diagram>
</mxfile>
